<?xml version="1.0" encoding="UTF-8" standalone="no"?>
<svg width="52px" height="52px" viewBox="0 0 52 52" version="1.1" xmlns="http://www.w3.org/2000/svg" xmlns:xlink="http://www.w3.org/1999/xlink">
    <!-- Generator: Sketch 39.1 (31720) - http://www.bohemiancoding.com/sketch -->
    <title>1485300259_art-tools</title>
    <desc>Created with Sketch.</desc>
    <defs></defs>
    <g id="Page-1" stroke="none" stroke-width="1" fill="none" fill-rule="evenodd">
        <g id="1485300259_art-tools" transform="translate(1.000000, 1.000000)" stroke-width="2" stroke="#BAC4D2" fill="#000000">
            <g id="Group">
                <g id="People">
                    <g id="Icon-22">
                        <path d="M40.625,40 C40.05,40 39.5833333,40.3733333 39.5833333,40.8333333 L39.5833333,42.5 C39.5833333,42.96 40.05,43.3333333 40.625,43.3333333 C41.2,43.3333333 41.6666667,42.96 41.6666667,42.5 L41.6666667,40.8333333 C41.6666667,40.3733333 41.2,40 40.625,40 L40.625,40 L40.625,40 Z M41.6666667,30.8333333 C41.6666667,30.3733333 41.2,30 40.625,30 C40.05,30 39.5833333,30.3733333 39.5833333,30.8333333 L39.5833333,37.5 C39.5833333,37.96 40.05,38.3333333 40.625,38.3333333 C41.2,38.3333333 41.6666667,37.96 41.6666667,37.5 L41.6666667,30.8333333 L41.6666667,30.8333333 Z M47.9166667,21.6666667 L2.08333333,21.6666667 C0.934375,21.6666667 0,22.4141667 0,23.3333333 L0,26.6666667 C0,27.5858333 0.934375,28.3333333 2.08333333,28.3333333 L2.08333333,45.8333333 C2.08333333,48.1308333 4.41979167,50 7.29166667,50 L42.7083333,50 C45.5802083,50 47.9166667,48.1308333 47.9166667,45.8333333 L47.9166667,30.8333333 C47.9166667,30.3733333 47.45,30 46.875,30 C46.3,30 45.8333333,30.3733333 45.8333333,30.8333333 L45.8333333,45.8333333 C45.8333333,47.2116667 44.43125,48.3333333 42.7083333,48.3333333 L7.29166667,48.3333333 C5.56875,48.3333333 4.16666667,47.2116667 4.16666667,45.8333333 L4.16666667,27.5 C4.16666667,27.04 3.7,26.6666667 3.125,26.6666667 L2.08333333,26.6666667 L2.08333333,23.3333333 L47.9166667,23.3333333 L47.9166667,26.6666667 L7.29166667,26.6666667 C6.71666667,26.6666667 6.25,27.04 6.25,27.5 C6.25,27.96 6.71666667,28.3333333 7.29166667,28.3333333 L47.9166667,28.3333333 C49.065625,28.3333333 50,27.5858333 50,26.6666667 L50,23.3333333 C50,22.4141667 49.065625,21.6666667 47.9166667,21.6666667 L47.9166667,21.6666667 L47.9166667,21.6666667 Z M22.9166667,13.7216667 L22.9166667,19.1666667 C22.9166667,19.6266667 23.3833333,20 23.9583333,20 C24.5333333,20 25,19.6266667 25,19.1666667 L25,13.3333333 C25,13.0716667 24.84375,12.8233333 24.5822917,12.6658333 C23.5239583,12.0291667 22.9166667,11.0575 22.9166667,10 C22.9166667,7.90333333 25.4385417,4.34666667 27.0833333,2.31916667 C28.728125,4.34666667 31.25,7.90333333 31.25,10 C31.25,11.5841667 29.84375,12.9583333 27.9072917,13.2683333 C27.3427083,13.3583333 26.9760417,13.7975 27.0895833,14.2483333 C27.2020833,14.7 27.7510417,14.99 28.3145833,14.9025 C31.2229167,14.4383333 33.3333333,12.3766667 33.3333333,10 C33.3333333,6.44083333 28.1510417,0.595833333 27.93125,0.349166667 C27.5395833,-0.0891666667 26.6270833,-0.0891666667 26.2354167,0.349166667 C26.015625,0.595833333 20.8333333,6.44083333 20.8333333,10 C20.8333333,11.4283333 21.571875,12.7533333 22.9166667,13.7216667 L22.9166667,13.7216667 L22.9166667,13.7216667 Z M3.125,20 L5.20833333,20 C5.78333333,20 6.25,19.6266667 6.25,19.1666667 C6.25,18.7066667 5.78333333,18.3333333 5.20833333,18.3333333 L4.16666667,18.3333333 L4.16666667,16.6666667 L9.375,16.6666667 C9.95,16.6666667 10.4166667,16.2933333 10.4166667,15.8333333 C10.4166667,15.3733333 9.95,15 9.375,15 L4.16666667,15 L4.16666667,13.3333333 L5.20833333,13.3333333 C5.78333333,13.3333333 6.25,12.96 6.25,12.5 C6.25,12.04 5.78333333,11.6666667 5.20833333,11.6666667 L4.16666667,11.6666667 L4.16666667,10 L5.20833333,10 C5.78333333,10 6.25,9.62666667 6.25,9.16666667 C6.25,8.70666667 5.78333333,8.33333333 5.20833333,8.33333333 L4.16666667,8.33333333 L4.16666667,6.66666667 L9.375,6.66666667 C9.95,6.66666667 10.4166667,6.29333333 10.4166667,5.83333333 C10.4166667,5.37333333 9.95,5 9.375,5 L4.16666667,5 L4.16666667,1.66666667 L16.6666667,1.66666667 L16.6666667,19.1666667 C16.6666667,19.6266667 17.1333333,20 17.7083333,20 C18.2833333,20 18.75,19.6266667 18.75,19.1666667 L18.75,0.833333333 C18.75,0.373333333 18.2833333,0 17.7083333,0 L3.125,0 C2.55,0 2.08333333,0.373333333 2.08333333,0.833333333 L2.08333333,19.1666667 C2.08333333,19.6266667 2.55,20 3.125,20 L3.125,20 L3.125,20 Z M40.625,10.8333333 L40.625,19.1666667 C40.625,19.6266667 41.0916667,20 41.6666667,20 C42.2416667,20 42.7083333,19.6266667 42.7083333,19.1666667 L42.7083333,10.8333333 C42.7083333,10.3733333 42.2416667,10 41.6666667,10 C41.0916667,10 40.625,10.3733333 40.625,10.8333333 L40.625,10.8333333 L40.625,10.8333333 Z M46.875,10 C46.3,10 45.8333333,10.3733333 45.8333333,10.8333333 L45.8333333,19.1666667 C45.8333333,19.6266667 46.3,20 46.875,20 C47.45,20 47.9166667,19.6266667 47.9166667,19.1666667 L47.9166667,10.8333333 C47.9166667,10.3733333 47.45,10 46.875,10 L46.875,10 L46.875,10 Z M36.4583333,20 C37.0333333,20 37.5,19.6266667 37.5,19.1666667 L37.5,7.73916667 L41.6666667,2.40583333 L44.9958333,6.66666667 L40.625,6.66666667 C40.05,6.66666667 39.5833333,7.04 39.5833333,7.5 C39.5833333,7.96 40.05,8.33333333 40.625,8.33333333 L46.875,8.33333333 C47.2541667,8.33333333 47.6020833,8.16916667 47.7864583,7.90416667 C47.9697917,7.63916667 47.959375,7.315 47.7583333,7.05833333 L42.55,0.391666667 C42.16875,-0.0958333333 41.1645833,-0.0958333333 40.7833333,0.391666667 L35.575,7.05833333 C35.471875,7.19083333 35.4166667,7.34333333 35.4166667,7.5 L35.4166667,19.1666667 C35.4166667,19.6266667 35.8833333,20 36.4583333,20 L36.4583333,20 L36.4583333,20 Z M31.25,16.6666667 L31.25,19.1666667 C31.25,19.6266667 30.7833333,20 30.2083333,20 C29.6333333,20 29.1666667,19.6266667 29.1666667,19.1666667 L29.1666667,16.6666667 C29.1666667,16.2066667 29.6333333,15.8333333 30.2083333,15.8333333 C30.7833333,15.8333333 31.25,16.2066667 31.25,16.6666667 L31.25,16.6666667 L31.25,16.6666667 Z" id="art-tools"></path>
                    </g>
                </g>
            </g>
        </g>
    </g>
</svg>