<?xml version="1.0" encoding="UTF-8" standalone="no"?>
<svg width="50px" height="50px" viewBox="0 0 50 50" version="1.1" xmlns="http://www.w3.org/2000/svg" xmlns:xlink="http://www.w3.org/1999/xlink">
    <!-- Generator: Sketch 39.1 (31720) - http://www.bohemiancoding.com/sketch -->
    <title>1485300153_icon_287</title>
    <desc>Created with Sketch.</desc>
    <defs></defs>
    <g id="Page-1" stroke="none" stroke-width="1" fill="none" fill-rule="evenodd">
        <g id="1485300153_icon_287">
            <g id="Layer_1">
                <g id="Group">
                    <path d="M0.102197802,9.67544204 L4.63585165,45.9682711 L24.9875,50 L45.3570055,45.970334 L49.8978022,9.67544204 L0.102197802,9.67544204 L0.102197802,9.67544204 Z M40.0615385,21.5437132 L39.4940934,26.1019646 L37.7835165,39.7713163 L24.998489,42.2991159 L24.9899725,42.3011788 L12.2133242,39.7713163 L11.3217033,32.6217092 L17.581456,32.6217092 L18.0453297,36.3304519 L24.9914835,37.6709234 L24.9982143,37.6692534 L31.9526099,36.3281925 L32.9009615,30.1511788 L11.0223901,30.1918468 L10.4042582,25.9678782 L33.428022,25.775835 L33.8932692,21.2527505 L9.78612637,21.3018664 L9.37898352,17.0948919 L24.9983516,17.0948919 L40.618956,17.0948919 L40.0615385,21.5437132 L40.0615385,21.5437132 Z" id="Shape" fill="#BAC4D2"></path>
                    <polygon id="Shape" fill="#424852" points="0.102197802 9.67584381 0.102197802 9.67584381 0.102197802 9.67534381"></polygon>
                    <polygon id="Shape" fill="#BAC4D2" points="17.6254121 5.90510806 13.6303571 5.90510806 13.6401099 1.61964637 17.6254121 1.61964637 17.6254121 0.0201375246 11.393544 0.0201375246 11.393544 1.61964637 11.4034341 1.61964637 11.3936813 5.90510806 11.393544 5.90510806 11.393544 7.5046169 17.6254121 7.5046169"></polygon>
                    <polygon id="Shape" fill="#BAC4D2" points="28.120467 5.88978389 23.1633242 1.61041257 27.7979396 1.61041257 27.7979396 0.0201375246 19.8178571 0.0201375246 19.8178571 1.5388998 24.7971154 5.81817289 19.495467 5.81817289 19.495467 7.40844794 28.120467 7.40844794"></polygon>
                    <polygon id="Shape" fill="#BAC4D2" points="38.4690934 5.88978389 33.5119505 1.61041257 38.1465659 1.61041257 38.1465659 0.0201375246 30.1666209 0.0201375246 30.1666209 1.5388998 35.1457418 5.81817289 29.8442308 5.81817289 29.8442308 7.40844794 38.4690934 7.40844794"></polygon>
                </g>
            </g>
        </g>
    </g>
</svg>