<?xml version="1.0" encoding="UTF-8" standalone="no"?>
<svg width="50px" height="50px" viewBox="0 0 50 50" version="1.1" xmlns="http://www.w3.org/2000/svg" xmlns:xlink="http://www.w3.org/1999/xlink">
    <!-- Generator: Sketch 39.1 (31720) - http://www.bohemiancoding.com/sketch -->
    <title>1485300182_js</title>
    <desc>Created with Sketch.</desc>
    <defs></defs>
    <g id="Page-1" stroke="none" stroke-width="1" fill="none" fill-rule="evenodd">
        <g id="1485300182_js" fill="#BAC4D2">
            <g id="Layer_1">
                <g id="Group">
                    <path d="M10.9404528,0.858397933 L19.2290354,0.858397933 L19.2290354,31.3518088 C19.2290354,45.0953488 14.2124016,49.8914729 6.19616142,49.8914729 C4.23316929,49.8914729 1.72480315,49.4620155 0.0886811024,48.7462532 L1.01574803,39.9418605 C2.1609252,40.4428941 3.63326772,40.8007752 5.26909449,40.8007752 C8.75905512,40.8007752 10.9404528,38.7248062 10.9404528,31.280491 L10.9404528,0.858397933 L10.9404528,0.858397933 Z" id="Shape"></path>
                    <path d="M26.4255906,37.9372093 C28.6067913,39.4404393 32.0968504,40.9436693 35.6413386,40.9436693 C39.458563,40.9436693 41.4761811,38.8679587 41.4761811,35.64677 C41.4761811,32.7120155 39.7312008,30.9226098 35.3141732,28.9182171 C29.2065945,26.0549096 25.1714567,21.6169251 25.1714567,14.5306202 C25.1714567,6.29870801 30.4609252,0.0710594315 39.0767717,0.0710594315 C43.2757874,0.0710594315 46.2748031,1.14509044 48.4562008,2.50490956 L46.6019685,11.2377261 C45.184252,10.3073643 42.5121063,8.94715762 38.9679134,8.94715762 C35.3687992,8.94715762 33.6237205,11.1661499 33.6237205,13.6 C33.6237205,16.6780362 35.6413386,18.0378553 40.4402559,20.4718346 C46.9292323,23.621447 49.9284449,28.0594315 49.9284449,34.931137 C49.9284449,43.0197674 45.2387795,49.8916021 35.1505906,49.8916021 C30.9515748,49.8916021 26.8070866,48.3882429 24.7352362,46.8851421 L26.4255906,37.9372093 L26.4255906,37.9372093 Z" id="Shape"></path>
                </g>
            </g>
        </g>
    </g>
</svg>