<?xml version="1.0" encoding="UTF-8" standalone="no"?>
<svg width="50px" height="50px" viewBox="0 0 50 50" version="1.1" xmlns="http://www.w3.org/2000/svg" xmlns:xlink="http://www.w3.org/1999/xlink">
    <!-- Generator: Sketch 39.1 (31720) - http://www.bohemiancoding.com/sketch -->
    <title>1485300046_calendar</title>
    <desc>Created with Sketch.</desc>
    <defs></defs>
    <g id="Page-1" stroke="none" stroke-width="1" fill="none" fill-rule="evenodd">
        <g id="1485300046_calendar" fill="#BAC4D2">
            <g id="Layer_1">
                <g id="calendar_1_">
                    <path d="M45.834375,4.6875 L39.0625,4.6875 L39.0625,1.5625 C39.0625,0.6984375 38.3640625,0 37.5,0 C36.6359375,0 35.9375,0.6984375 35.9375,1.5625 L35.9375,4.6875 L26.5625,4.6875 L26.5625,1.5625 C26.5625,0.6984375 25.8625,0 25,0 C24.1375,0 23.4375,0.6984375 23.4375,1.5625 L23.4375,4.6875 L14.0625,4.6875 L14.0625,1.5625 C14.0625,0.6984375 13.3625,0 12.5,0 C11.6375,0 10.9375,0.6984375 10.9375,1.5625 L10.9375,4.6875 L4.1671875,4.6875 C1.865625,4.6875 0,6.5515625 0,8.853125 L0,45.8328125 C0,48.134375 1.865625,50 4.1671875,50 L45.834375,50 C48.1359375,50 50,48.134375 50,45.8328125 L50,8.853125 C50,6.5515625 48.1359375,4.6875 45.834375,4.6875 L45.834375,4.6875 Z M46.875,45.8328125 C46.875,46.4078125 46.4078125,46.875 45.834375,46.875 L4.1671875,46.875 C3.5921875,46.875 3.125,46.4078125 3.125,45.8328125 L3.125,8.853125 C3.125,8.2796875 3.5921875,7.8125 4.1671875,7.8125 L10.9375,7.8125 L10.9375,10.9375 C10.9375,11.8015625 11.6375,12.5 12.5,12.5 C13.3625,12.5 14.0625,11.8015625 14.0625,10.9375 L14.0625,7.8125 L23.4375,7.8125 L23.4375,10.9375 C23.4375,11.8015625 24.1375,12.5 25,12.5 C25.8625,12.5 26.5625,11.8015625 26.5625,10.9375 L26.5625,7.8125 L35.9375,7.8125 L35.9375,10.9375 C35.9375,11.8015625 36.6359375,12.5 37.5,12.5 C38.3640625,12.5 39.0625,11.8015625 39.0625,10.9375 L39.0625,7.8125 L45.834375,7.8125 C46.4078125,7.8125 46.875,8.2796875 46.875,8.853125 L46.875,45.8328125 L46.875,45.8328125 Z" id="Shape"></path>
                    <rect id="Rectangle-path" x="10.9375" y="18.75" width="6.25" height="4.6875"></rect>
                    <rect id="Rectangle-path" x="10.9375" y="26.5625" width="6.25" height="4.6875"></rect>
                    <rect id="Rectangle-path" x="10.9375" y="34.375" width="6.25" height="4.6875"></rect>
                    <rect id="Rectangle-path" x="21.875" y="34.375" width="6.25" height="4.6875"></rect>
                    <rect id="Rectangle-path" x="21.875" y="26.5625" width="6.25" height="4.6875"></rect>
                    <rect id="Rectangle-path" x="21.875" y="18.75" width="6.25" height="4.6875"></rect>
                    <rect id="Rectangle-path" x="32.8125" y="34.375" width="6.25" height="4.6875"></rect>
                    <rect id="Rectangle-path" x="32.8125" y="26.5625" width="6.25" height="4.6875"></rect>
                    <rect id="Rectangle-path" x="32.8125" y="18.75" width="6.25" height="4.6875"></rect>
                </g>
            </g>
        </g>
    </g>
</svg>