<?xml version="1.0" encoding="UTF-8" standalone="no"?>
<svg width="50px" height="50px" viewBox="0 0 50 50" version="1.1" xmlns="http://www.w3.org/2000/svg" xmlns:xlink="http://www.w3.org/1999/xlink">
    <!-- Generator: Sketch 39.1 (31720) - http://www.bohemiancoding.com/sketch -->
    <title>1485299987_group2</title>
    <desc>Created with Sketch.</desc>
    <defs></defs>
    <g id="Page-1" stroke="none" stroke-width="1" fill="none" fill-rule="evenodd">
        <g id="1485299987_group2" fill="#BAC4D2">
            <g id="Layer_1">
                <path d="M18.1818182,11.5384615 C18.1818182,5 21.1363636,0 25,0 C28.8636364,0 31.8181818,5 31.8181818,11.5384615 C31.8181818,18.0769231 28.8636364,23.0769231 25,23.0769231 C21.1363636,23.0769231 18.1818182,18.0769231 18.1818182,11.5384615 L18.1818182,11.5384615 Z M25,30.7692308 C14.5454545,30.7692308 11.3636364,43.4615385 11.3636364,43.4615385 L11.3636364,50 L38.6363636,50 L38.6363636,43.4615385 C38.6363636,43.4615385 35.4545455,30.7692308 25,30.7692308 L25,30.7692308 Z" id="Shape"></path>
                <g id="Group" transform="translate(32.818182, 0.000000)">
                    <ellipse id="Oval" cx="6.95454545" cy="9.61538462" rx="5.68181818" ry="9.61538462"></ellipse>
                    <path d="M6.95454545,26.9230769 C4.22727273,26.9230769 2.18181818,28.0769231 0.590909091,30 C5.81818182,34.2307692 7.86363636,41.5384615 7.86363636,42.3076923 L7.86363636,42.6923077 L17.1818182,42.6923077 L17.1818182,37.6923077 C17.1818182,37.3076923 14.6818182,26.9230769 6.95454545,26.9230769 L6.95454545,26.9230769 Z" id="Shape"></path>
                </g>
                <g id="Group" transform="translate(32.818182, 0.000000)">
                    <ellipse id="Oval" cx="6.95454545" cy="9.61538462" rx="5.68181818" ry="9.61538462"></ellipse>
                    <path d="M6.95454545,26.9230769 C4.22727273,26.9230769 2.18181818,28.0769231 0.590909091,30 C5.81818182,34.2307692 7.86363636,41.5384615 7.86363636,42.3076923 L7.86363636,42.6923077 L17.1818182,42.6923077 L17.1818182,37.6923077 C17.1818182,37.3076923 14.6818182,26.9230769 6.95454545,26.9230769 L6.95454545,26.9230769 Z" id="Shape"></path>
                </g>
                <g id="Group">
                    <ellipse id="Oval" cx="10.2272727" cy="9.61538462" rx="5.68181818" ry="9.61538462"></ellipse>
                    <path d="M10.2272727,26.9230769 C12.9545455,26.9230769 15,28.0769231 16.5909091,30 C11.3636364,34.2307692 9.31818182,41.5384615 9.31818182,42.3076923 L9.31818182,42.6923077 L0,42.6923077 L0,37.6923077 C0,37.3076923 2.5,26.9230769 10.2272727,26.9230769 L10.2272727,26.9230769 Z" id="Shape"></path>
                </g>
            </g>
        </g>
    </g>
</svg>