<?xml version="1.0" encoding="UTF-8" standalone="no"?>
<svg width="50px" height="50px" viewBox="0 0 50 50" version="1.1" xmlns="http://www.w3.org/2000/svg" xmlns:xlink="http://www.w3.org/1999/xlink">
    <!-- Generator: Sketch 39.1 (31720) - http://www.bohemiancoding.com/sketch -->
    <title>1485299969_tennis</title>
    <desc>Created with Sketch.</desc>
    <defs></defs>
    <g id="Page-1" stroke="none" stroke-width="1" fill="none" fill-rule="evenodd">
        <g id="1485299969_tennis" fill="#BAC4D2">
            <g id="Layer_1">
                <path d="M22.75,2.75 C24,4.5 25,6.5 25,8.75 C25,11 24,13 22.75,14.75 C21.75,13.75 20.75,11.75 20.75,8.75 C20.5,5.75 21.75,3.75 22.75,2.75 L22.75,2.75 Z M9.75,2.75 C8.5,4.5 7.5,6.5 7.5,8.75 C7.5,11 8.5,13 9.75,14.75 C10.75,13.75 11.75,11.75 11.75,8.75 C12,5.75 10.75,3.75 9.75,2.75 L9.75,2.75 Z M13.75,8.75 C13.75,12.25 12.5,14.5 11.25,16 C12.75,17 14.25,17.5 16.25,17.5 C18.25,17.5 19.75,17 21.25,16 C20,14.75 18.75,12.5 18.75,8.75 C18.75,5.25 20,3 21.25,1.5 C19.75,0.5 18.25,0 16.25,0 C14.25,0 12.75,0.5 11.25,1.5 C12.25,3 13.75,5.25 13.75,8.75 L13.75,8.75 Z" id="Shape"></path>
                <path d="M12.25,42.5 L5.5,49.25 C4.5,50.25 3,50.25 2,49.25 L1,48.25 C0,47.25 0,45.75 1,44.75 L7.5,37.75 L12.25,42.5 L12.25,42.5 Z" id="Shape"></path>
                <path d="M18.5,31.5 C18.5,31.5 16.75,24 16.75,23.25 L13.25,23.5 C13.5,26.25 13.5,34.25 10.5,37 L13,39.5 C16,36.5 23.75,36.5 26.5,36.75 L26.75,33.25 C26,33.25 18.5,31.5 18.5,31.5 L18.5,31.5 Z" id="Shape"></path>
                <path d="M46,4 C43.5,1.25 40,0 36,0 C32.75,0 29.25,1 25.75,2.75 C26.75,4.25 27.5,5.75 27.5,7.75 C30.25,6 33.25,5 36,5 C37.75,5 40.5,5.5 42.5,7.5 C44.5,9.5 45.25,12.25 44.75,15.75 C44.25,19.5 42.25,23.25 39.25,26.5 C35.75,30 31,32.25 26.75,32.25 C25,32.25 22.25,31.75 20.25,29.75 C18,27.25 17.5,23.5 18.5,19.75 C17.75,20 17,20 16.5,20 C15.5,20 14.5,19.75 13.5,19.5 C12.5,24.75 13.5,29.75 17,33 C19.75,35.75 23.25,37 27,37 C32.25,37 38.25,34.5 43,29.75 C51,21.75 52.25,10.25 46,4 L46,4 Z" id="Shape"></path>
            </g>
        </g>
    </g>
</svg>